<svg xmlns="http://www.w3.org/2000/svg" xmlns:xlink="http://www.w3.org/1999/xlink" width="500" zoomAndPan="magnify" viewBox="0 0 375 374.999991" height="500" preserveAspectRatio="xMidYMid meet" version="1.0"><defs><g/><clipPath id="id1"><path d="M 258.160156 133.773438 L 328 133.773438 L 328 204 L 258.160156 204 Z M 258.160156 133.773438 " clip-rule="nonzero"/></clipPath></defs><rect x="-37.5" width="450" fill="#ffffff" y="-37.499999" height="449.999989" fill-opacity="1"/><rect x="-37.5" width="450" fill="#ffffff" y="-37.499999" height="449.999989" fill-opacity="1"/><rect x="-37.5" width="450" fill="#ffffff" y="-37.499999" height="449.999989" fill-opacity="1"/><rect x="-37.5" width="450" fill="#ffffff" y="-37.499999" height="449.999989" fill-opacity="1"/><g clip-path="url(#id1)"><path fill="#960000" d="M 292.972656 133.785156 C 273.730469 133.785156 258.160156 149.296875 258.160156 168.46875 C 258.160156 188.425781 274.988281 204.257812 295.011719 203.089844 L 295.011719 186.144531 C 293.0625 188.765625 290.867188 191.320312 288.523438 193.644531 C 287.726562 194.433594 286.433594 194.433594 285.636719 193.636719 C 284.84375 192.839844 284.847656 191.554688 285.644531 190.761719 C 291.984375 184.476562 297.140625 176.5 298.78125 170.4375 C 301.167969 161.625 289.476562 159.175781 287.207031 166.433594 C 286.871094 167.507812 285.730469 168.105469 284.652344 167.769531 C 283.578125 167.4375 282.976562 166.296875 283.3125 165.226562 C 284.648438 160.957031 288.558594 158.085938 293.046875 158.085938 C 297.695312 158.085938 301.9375 161.269531 302.957031 165.953125 C 303.992188 164.984375 305.195312 164.191406 306.519531 163.625 C 305.519531 160.640625 303.539062 158.058594 300.808594 156.300781 C 299.859375 155.691406 299.589844 154.4375 300.199219 153.492188 C 300.808594 152.550781 302.070312 152.277344 303.019531 152.886719 C 306.652344 155.21875 309.25 158.683594 310.5 162.671875 C 311.996094 162.570312 313.464844 162.742188 314.859375 163.160156 C 312.535156 152.882812 303.269531 145.894531 293.046875 145.894531 C 285.523438 145.894531 278.929688 149.597656 274.933594 155.042969 C 272.839844 157.894531 271.769531 161.585938 270.695312 163.808594 C 270.203125 164.820312 268.984375 165.246094 267.96875 164.757812 C 266.957031 164.269531 266.53125 163.054688 267.019531 162.042969 C 268.003906 160.011719 269.195312 155.976562 271.640625 152.644531 C 276.308594 146.285156 284.050781 141.828125 293.046875 141.828125 C 306.652344 141.828125 318.222656 152.203125 319.363281 165.648438 C 321.933594 167.886719 323.558594 171.171875 323.558594 174.828125 C 323.558594 176.886719 323.632812 177.589844 323.230469 178.765625 L 326.214844 178.765625 C 333.15625 156.457031 316.453125 133.785156 292.972656 133.785156 Z M 287.988281 150.664062 C 290.375 149.984375 292.976562 149.765625 295.617188 150.136719 C 296.734375 150.296875 297.507812 151.324219 297.351562 152.433594 C 297.195312 153.546875 296.160156 154.320312 295.046875 154.164062 C 293.0625 153.882812 291.039062 154.023438 289.109375 154.574219 C 288.027344 154.882812 286.898438 154.257812 286.589844 153.179688 C 286.277344 152.101562 286.90625 150.976562 287.988281 150.664062 Z M 291.101562 167.644531 C 291.4375 166.574219 292.582031 165.976562 293.65625 166.3125 C 294.730469 166.644531 295.332031 167.785156 294.996094 168.855469 C 291.996094 178.449219 285.640625 185.78125 278.824219 189.582031 C 277.839844 190.128906 276.597656 189.777344 276.046875 188.800781 C 275.5 187.820312 275.847656 186.582031 276.832031 186.035156 C 279.253906 184.683594 287.433594 179.371094 291.101562 167.644531 Z M 283.453125 170.4375 C 284.417969 171.019531 284.726562 172.269531 284.140625 173.230469 C 281.515625 177.550781 277.453125 181.6875 272.820312 183.402344 C 271.765625 183.792969 270.589844 183.257812 270.199219 182.203125 C 269.804688 181.152344 270.34375 179.984375 271.398438 179.59375 C 275.132812 178.207031 278.519531 174.628906 280.652344 171.125 C 281.238281 170.164062 282.492188 169.859375 283.453125 170.4375 Z M 268.351562 172.003906 C 271.601562 170.878906 273.949219 167.871094 275.523438 162.8125 C 276.546875 159.519531 278.476562 156.597656 281.097656 154.359375 C 281.953125 153.628906 283.238281 153.730469 283.972656 154.582031 C 284.703125 155.433594 284.605469 156.714844 283.75 157.445312 C 281.714844 159.183594 280.214844 161.457031 279.417969 164.015625 C 277.460938 170.304688 274.1875 174.285156 269.6875 175.839844 C 268.625 176.210938 267.460938 175.648438 267.09375 174.585938 C 266.722656 173.527344 267.285156 172.371094 268.351562 172.003906 Z M 268.351562 172.003906 " fill-opacity="1" fill-rule="nonzero"/></g><path fill="#960000" d="M 321.527344 182.828125 L 307.253906 182.828125 L 307.253906 174.828125 C 307.253906 172.589844 309.082031 170.769531 311.328125 170.769531 C 313.574219 170.769531 315.402344 172.589844 315.402344 174.828125 L 315.402344 176.800781 C 315.402344 177.921875 316.3125 178.832031 317.441406 178.832031 C 318.566406 178.832031 319.480469 177.921875 319.480469 176.800781 L 319.480469 174.828125 C 319.480469 170.351562 315.824219 166.707031 311.328125 166.707031 C 306.832031 166.707031 303.175781 170.351562 303.175781 174.828125 L 303.175781 182.828125 L 301.128906 182.828125 C 300.003906 182.828125 299.089844 183.738281 299.089844 184.859375 L 299.089844 201.117188 C 299.089844 202.238281 300.003906 203.148438 301.128906 203.148438 L 321.527344 203.148438 C 322.652344 203.148438 323.566406 202.238281 323.566406 201.117188 L 323.566406 184.859375 C 323.566406 183.738281 322.652344 182.828125 321.527344 182.828125 Z M 313.367188 194.886719 L 309.289062 194.886719 C 308.160156 194.886719 307.25 193.976562 307.25 192.851562 C 307.25 191.730469 308.160156 190.820312 309.289062 190.820312 L 313.367188 190.820312 C 314.492188 190.820312 315.40625 191.730469 315.40625 192.851562 C 315.40625 193.976562 314.492188 194.886719 313.367188 194.886719 Z M 313.367188 194.886719 " fill-opacity="1" fill-rule="nonzero"/><g fill="#000000" fill-opacity="1"><g transform="translate(3.891514, 201.538948)"><g><path d="M 22.953125 0.765625 C 16.203125 0.765625 11.367188 -1.144531 8.453125 -4.96875 C 5.535156 -8.789062 4.078125 -14.332031 4.078125 -21.59375 L 4.078125 -47.6875 C 4.078125 -54.820312 5.550781 -60.226562 8.5 -63.90625 C 11.445312 -67.59375 16.265625 -69.4375 22.953125 -69.4375 C 29.640625 -69.4375 34.441406 -67.582031 37.359375 -63.875 C 40.273438 -60.164062 41.734375 -54.769531 41.734375 -47.6875 L 41.734375 -21.5 C 41.734375 -14.363281 40.257812 -8.867188 37.3125 -5.015625 C 34.363281 -1.160156 29.578125 0.765625 22.953125 0.765625 Z M 22.953125 -6.796875 C 26.523438 -6.796875 28.929688 -7.84375 30.171875 -9.9375 C 31.421875 -12.039062 32.046875 -15.21875 32.046875 -19.46875 L 32.046875 -49.640625 C 32.046875 -53.835938 31.421875 -56.941406 30.171875 -58.953125 C 28.929688 -60.960938 26.523438 -61.96875 22.953125 -61.96875 C 19.328125 -61.96875 16.890625 -60.960938 15.640625 -58.953125 C 14.390625 -56.941406 13.765625 -53.835938 13.765625 -49.640625 L 13.765625 -19.46875 C 13.765625 -15.21875 14.390625 -12.039062 15.640625 -9.9375 C 16.890625 -7.84375 19.328125 -6.796875 22.953125 -6.796875 Z M 22.953125 -6.796875 "/></g></g></g><g fill="#000000" fill-opacity="1"><g transform="translate(59.904142, 201.538948)"><g><path d="M 22.609375 0.765625 C 15.804688 0.765625 11.015625 -1.257812 8.234375 -5.3125 C 5.460938 -9.363281 4.078125 -14.957031 4.078125 -22.09375 L 4.078125 -46.40625 C 4.078125 -53.945312 5.4375 -59.671875 8.15625 -63.578125 C 10.875 -67.484375 15.691406 -69.4375 22.609375 -69.4375 C 28.785156 -69.4375 33.21875 -67.765625 35.90625 -64.421875 C 38.601562 -61.085938 39.953125 -56.160156 39.953125 -49.640625 L 39.953125 -44.203125 L 30.859375 -44.203125 L 30.859375 -49.046875 C 30.859375 -52.222656 30.710938 -54.660156 30.421875 -56.359375 C 30.140625 -58.054688 29.414062 -59.414062 28.25 -60.4375 C 27.09375 -61.457031 25.238281 -61.96875 22.6875 -61.96875 C 20.082031 -61.96875 18.140625 -61.414062 16.859375 -60.3125 C 15.585938 -59.207031 14.753906 -57.675781 14.359375 -55.71875 C 13.960938 -53.757812 13.765625 -51.140625 13.765625 -47.859375 L 13.765625 -20.5625 C 13.765625 -17.050781 14.046875 -14.300781 14.609375 -12.3125 C 15.179688 -10.332031 16.101562 -8.914062 17.375 -8.0625 C 18.65625 -7.21875 20.425781 -6.796875 22.6875 -6.796875 C 25.125 -6.796875 26.9375 -7.332031 28.125 -8.40625 C 29.320312 -9.488281 30.078125 -10.960938 30.390625 -12.828125 C 30.703125 -14.703125 30.859375 -17.253906 30.859375 -20.484375 L 30.859375 -25.578125 L 39.953125 -25.578125 L 39.953125 -20.484375 C 39.953125 -13.628906 38.660156 -8.375 36.078125 -4.71875 C 33.503906 -1.0625 29.015625 0.765625 22.609375 0.765625 Z M 22.609375 0.765625 "/></g></g></g><g fill="#000000" fill-opacity="1"><g transform="translate(113.876862, 201.538948)"><g><path d="M 12.921875 -61.703125 L 1.28125 -61.703125 L 1.28125 -68.84375 L 33.828125 -68.84375 L 33.828125 -61.703125 L 22.53125 -61.703125 L 22.53125 0 L 12.921875 0 Z M 12.921875 -61.703125 "/></g></g></g><g fill="#000000" fill-opacity="1"><g transform="translate(159.179979, 201.538948)"><g><path d="M 16.234375 -68.84375 L 25.5 -68.84375 L 40.203125 0 L 31.109375 0 L 27.96875 -17.34375 L 13.9375 -17.34375 L 10.625 0 L 1.609375 0 Z M 26.6875 -24.21875 L 20.90625 -55.25 L 15.21875 -24.21875 Z M 26.6875 -24.21875 "/></g></g></g><g fill="#000000" fill-opacity="1"><g transform="translate(211.19779, 201.538948)"><g><path d="M 21.765625 0.84375 C 15.523438 0.84375 11.015625 -1.125 8.234375 -5.0625 C 5.460938 -9 4.078125 -14.847656 4.078125 -22.609375 L 4.078125 -45.640625 C 4.078125 -50.972656 4.628906 -55.351562 5.734375 -58.78125 C 6.835938 -62.207031 8.734375 -64.835938 11.421875 -66.671875 C 14.117188 -68.515625 17.820312 -69.4375 22.53125 -69.4375 C 28.875 -69.4375 33.445312 -67.820312 36.25 -64.59375 C 39.050781 -61.363281 40.453125 -56.296875 40.453125 -49.390625 L 40.453125 -46.828125 L 31.453125 -46.828125 L 31.453125 -48.953125 C 31.453125 -52.242188 31.253906 -54.78125 30.859375 -56.5625 C 30.460938 -58.351562 29.625 -59.703125 28.34375 -60.609375 C 27.070312 -61.515625 25.1875 -61.96875 22.6875 -61.96875 C 20.03125 -61.96875 18.050781 -61.359375 16.75 -60.140625 C 15.445312 -58.921875 14.609375 -57.289062 14.234375 -55.25 C 13.867188 -53.207031 13.6875 -50.488281 13.6875 -47.09375 L 13.6875 -21.59375 C 13.6875 -16.320312 14.320312 -12.535156 15.59375 -10.234375 C 16.875 -7.941406 19.328125 -6.796875 22.953125 -6.796875 C 26.523438 -6.796875 28.972656 -8.039062 30.296875 -10.53125 C 31.628906 -13.03125 32.296875 -17.03125 32.296875 -22.53125 L 32.296875 -27.28125 L 23.546875 -27.28125 L 23.546875 -34.078125 L 40.96875 -34.078125 L 40.96875 0 L 34.9375 0 L 34 -7.90625 C 31.84375 -2.070312 27.765625 0.84375 21.765625 0.84375 Z M 21.765625 0.84375 "/></g></g></g><g fill="#000000" fill-opacity="1"><g transform="translate(328.443381, 201.538948)"><g><path d="M 5.359375 -68.84375 L 11.90625 -68.84375 L 31.453125 -23.125 L 31.453125 -68.84375 L 39.4375 -68.84375 L 39.4375 0 L 33.3125 0 L 13.515625 -47 L 13.515625 0 L 5.359375 0 Z M 5.359375 -68.84375 "/></g></g></g><g fill="#960000" fill-opacity="1"><g transform="translate(74.545247, 227.116084)"><g><path d="M 16.671875 -4.960938 L 14.835938 -4.960938 C 14.261719 -3.910156 13.476562 -3.054688 12.472656 -2.433594 C 11.472656 -1.789062 10.351562 -1.480469 9.160156 -1.480469 C 7.371094 -1.480469 5.84375 -2.121094 4.578125 -3.457031 C 3.339844 -4.722656 2.742188 -6.273438 2.742188 -8.085938 C 2.742188 -9.898438 3.339844 -11.449219 4.578125 -12.734375 C 5.152344 -13.332031 5.84375 -13.808594 6.628906 -14.167969 C 7.394531 -14.523438 8.15625 -14.714844 8.917969 -14.714844 C 9.660156 -14.714844 10.304688 -14.621094 10.875 -14.453125 C 12.617188 -13.929688 13.929688 -12.878906 14.8125 -11.28125 L 16.648438 -11.28125 C 16.027344 -12.808594 15.050781 -14.046875 13.691406 -15 C 12.304688 -15.957031 10.804688 -16.433594 9.160156 -16.433594 C 6.894531 -16.433594 4.984375 -15.597656 3.410156 -13.953125 C 2.671875 -13.1875 2.097656 -12.28125 1.691406 -11.28125 C 1.265625 -10.28125 1.074219 -9.207031 1.074219 -8.085938 C 1.074219 -5.796875 1.835938 -3.863281 3.410156 -2.242188 C 4.984375 -0.574219 6.894531 0.238281 9.160156 0.238281 C 10.804688 0.238281 12.304688 -0.238281 13.714844 -1.191406 C 15.074219 -2.148438 16.050781 -3.386719 16.671875 -4.960938 Z M 16.671875 -4.960938 "/></g></g></g><g fill="#960000" fill-opacity="1"><g transform="translate(96.700833, 227.116084)"><g><path d="M 3.125 5.960938 L 10.375 -10.492188 L 8.515625 -10.492188 L 5.507812 -3.457031 L 2.148438 -10.492188 L 0.238281 -10.492188 L 4.625 -1.71875 L 1.097656 5.960938 Z M 3.125 5.960938 "/></g></g></g><g fill="#960000" fill-opacity="1"><g transform="translate(111.606724, 227.116084)"><g><path d="M 3.457031 0 L 3.457031 -1.789062 C 3.53125 -1.644531 3.648438 -1.527344 3.746094 -1.429688 C 4.746094 -0.308594 5.960938 0.238281 7.417969 0.238281 C 8.847656 0.238281 10.066406 -0.308594 11.066406 -1.429688 C 12.019531 -2.503906 12.519531 -3.769531 12.519531 -5.246094 C 12.519531 -6.703125 12.019531 -7.964844 11.066406 -9.0625 C 10.066406 -10.160156 8.847656 -10.734375 7.417969 -10.734375 C 5.960938 -10.734375 4.746094 -10.160156 3.746094 -9.0625 C 3.648438 -8.945312 3.53125 -8.824219 3.457031 -8.679688 L 3.457031 -17.886719 L 1.789062 -17.886719 L 1.789062 0 Z M 10.851562 -5.246094 C 10.851562 -4.222656 10.492188 -3.316406 9.777344 -2.574219 C 9.0625 -1.8125 8.179688 -1.429688 7.15625 -1.429688 C 6.105469 -1.429688 5.222656 -1.8125 4.507812 -2.574219 C 3.792969 -3.316406 3.457031 -4.222656 3.457031 -5.246094 C 3.457031 -6.25 3.792969 -7.15625 4.507812 -7.917969 C 5.222656 -8.679688 6.105469 -9.0625 7.15625 -9.0625 C 8.179688 -9.0625 9.0625 -8.679688 9.777344 -7.917969 C 10.492188 -7.15625 10.851562 -6.25 10.851562 -5.246094 Z M 10.851562 -5.246094 "/></g></g></g><g fill="#960000" fill-opacity="1"><g transform="translate(129.970525, 227.116084)"><g><path d="M 12.042969 -5.484375 C 12.042969 -6.917969 11.472656 -8.15625 10.375 -9.230469 C 9.300781 -10.253906 8.011719 -10.78125 6.558594 -10.78125 C 5.03125 -10.78125 3.746094 -10.230469 2.671875 -9.160156 C 1.597656 -8.085938 1.074219 -6.796875 1.074219 -5.292969 C 1.074219 -3.769531 1.597656 -2.480469 2.671875 -1.429688 C 3.171875 -0.929688 3.746094 -0.546875 4.414062 -0.261719 C 5.078125 0.0234375 5.867188 0.167969 6.796875 0.167969 C 7.726562 0.167969 8.632812 -0.121094 9.539062 -0.691406 C 10.445312 -1.265625 11.113281 -2.074219 11.566406 -3.078125 L 9.660156 -3.078125 C 9.277344 -2.574219 8.824219 -2.195312 8.277344 -1.90625 C 7.726562 -1.621094 7.15625 -1.503906 6.558594 -1.503906 C 5.652344 -1.503906 4.839844 -1.789062 4.125 -2.386719 C 3.410156 -2.957031 2.957031 -3.695312 2.8125 -4.601562 L 12.042969 -4.601562 Z M 10.28125 -6.035156 L 2.839844 -6.035156 C 2.933594 -6.464844 3.101562 -6.867188 3.339844 -7.25 C 4.101562 -8.492188 5.175781 -9.109375 6.558594 -9.109375 C 7.441406 -9.109375 8.226562 -8.824219 8.917969 -8.253906 C 9.636719 -7.65625 10.066406 -6.917969 10.28125 -6.035156 Z M 10.28125 -6.035156 "/></g></g></g><g fill="#960000" fill-opacity="1"><g transform="translate(147.73814, 227.116084)"><g><path d="M 7.179688 -8.324219 L 7.179688 -10.492188 C 6.84375 -10.636719 6.488281 -10.707031 6.128906 -10.707031 C 4.9375 -10.707031 4.078125 -10.039062 3.53125 -8.753906 L 3.457031 -8.324219 L 3.457031 -10.492188 L 1.789062 -10.492188 L 1.789062 0 L 3.457031 0 L 3.457031 -5.246094 C 3.457031 -6.105469 3.648438 -6.867188 4.054688 -7.558594 C 4.246094 -7.917969 4.507812 -8.226562 4.816406 -8.464844 C 5.128906 -8.707031 5.507812 -8.847656 5.9375 -8.847656 C 6.367188 -8.847656 6.773438 -8.65625 7.179688 -8.324219 Z M 7.179688 -8.324219 "/></g></g></g><g fill="#960000" fill-opacity="1"><g transform="translate(159.925387, 227.116084)"><g/></g></g><g fill="#960000" fill-opacity="1"><g transform="translate(171.134886, 227.116084)"><g><path d="M 11.425781 -14.667969 L 11.425781 -16.21875 L 1.789062 -16.21875 L 1.789062 0 L 3.457031 0 L 3.457031 -7.320312 L 11.1875 -7.320312 L 11.1875 -8.894531 L 3.457031 -8.894531 L 3.457031 -14.667969 Z M 11.425781 -14.667969 "/></g></g></g><g fill="#960000" fill-opacity="1"><g transform="translate(187.805505, 227.116084)"><g><path d="M 10.375 -5.292969 C 10.375 -4.246094 9.992188 -3.363281 9.253906 -2.625 C 8.492188 -1.859375 7.609375 -1.503906 6.558594 -1.503906 C 5.507812 -1.503906 4.601562 -1.859375 3.863281 -2.625 C 3.101562 -3.363281 2.742188 -4.246094 2.742188 -5.292969 C 2.742188 -6.34375 3.101562 -7.226562 3.863281 -7.988281 C 4.601562 -8.730469 5.507812 -9.109375 6.558594 -9.109375 C 7.609375 -9.109375 8.492188 -8.730469 9.253906 -7.988281 C 9.992188 -7.226562 10.375 -6.34375 10.375 -5.292969 Z M 12.042969 -5.292969 C 12.042969 -6.796875 11.496094 -8.085938 10.421875 -9.160156 C 9.347656 -10.230469 8.0625 -10.78125 6.558594 -10.78125 C 5.03125 -10.78125 3.746094 -10.230469 2.671875 -9.160156 C 1.597656 -8.085938 1.074219 -6.796875 1.074219 -5.292969 C 1.074219 -3.769531 1.597656 -2.480469 2.671875 -1.429688 C 3.746094 -0.359375 5.054688 0.167969 6.558594 0.167969 C 8.039062 0.167969 9.347656 -0.359375 10.421875 -1.429688 C 11.496094 -2.480469 12.042969 -3.769531 12.042969 -5.292969 Z M 12.042969 -5.292969 "/></g></g></g><g fill="#960000" fill-opacity="1"><g transform="translate(205.692355, 227.116084)"><g><path d="M 7.179688 -8.324219 L 7.179688 -10.492188 C 6.84375 -10.636719 6.488281 -10.707031 6.128906 -10.707031 C 4.9375 -10.707031 4.078125 -10.039062 3.53125 -8.753906 L 3.457031 -8.324219 L 3.457031 -10.492188 L 1.789062 -10.492188 L 1.789062 0 L 3.457031 0 L 3.457031 -5.246094 C 3.457031 -6.105469 3.648438 -6.867188 4.054688 -7.558594 C 4.246094 -7.917969 4.507812 -8.226562 4.816406 -8.464844 C 5.128906 -8.707031 5.507812 -8.847656 5.9375 -8.847656 C 6.367188 -8.847656 6.773438 -8.65625 7.179688 -8.324219 Z M 7.179688 -8.324219 "/></g></g></g><g fill="#960000" fill-opacity="1"><g transform="translate(217.879603, 227.116084)"><g><path d="M 12.042969 -5.484375 C 12.042969 -6.917969 11.472656 -8.15625 10.375 -9.230469 C 9.300781 -10.253906 8.011719 -10.78125 6.558594 -10.78125 C 5.03125 -10.78125 3.746094 -10.230469 2.671875 -9.160156 C 1.597656 -8.085938 1.074219 -6.796875 1.074219 -5.292969 C 1.074219 -3.769531 1.597656 -2.480469 2.671875 -1.429688 C 3.171875 -0.929688 3.746094 -0.546875 4.414062 -0.261719 C 5.078125 0.0234375 5.867188 0.167969 6.796875 0.167969 C 7.726562 0.167969 8.632812 -0.121094 9.539062 -0.691406 C 10.445312 -1.265625 11.113281 -2.074219 11.566406 -3.078125 L 9.660156 -3.078125 C 9.277344 -2.574219 8.824219 -2.195312 8.277344 -1.90625 C 7.726562 -1.621094 7.15625 -1.503906 6.558594 -1.503906 C 5.652344 -1.503906 4.839844 -1.789062 4.125 -2.386719 C 3.410156 -2.957031 2.957031 -3.695312 2.8125 -4.601562 L 12.042969 -4.601562 Z M 10.28125 -6.035156 L 2.839844 -6.035156 C 2.933594 -6.464844 3.101562 -6.867188 3.339844 -7.25 C 4.101562 -8.492188 5.175781 -9.109375 6.558594 -9.109375 C 7.441406 -9.109375 8.226562 -8.824219 8.917969 -8.253906 C 9.636719 -7.65625 10.066406 -6.917969 10.28125 -6.035156 Z M 10.28125 -6.035156 "/></g></g></g><g fill="#960000" fill-opacity="1"><g transform="translate(235.647218, 227.116084)"><g><path d="M 9.039062 0 L 10.707031 0 L 10.707031 -6.558594 C 10.707031 -7.773438 10.375 -8.753906 9.753906 -9.492188 C 9.421875 -9.875 9.039062 -10.160156 8.585938 -10.375 C 8.109375 -10.589844 7.511719 -10.707031 6.773438 -10.707031 C 6.011719 -10.707031 5.367188 -10.492188 4.792969 -10.113281 C 4.246094 -9.753906 3.792969 -9.277344 3.457031 -8.679688 L 3.457031 -10.492188 L 1.789062 -10.492188 L 1.789062 0 L 3.457031 0 L 3.457031 -4.386719 C 3.457031 -5.722656 3.695312 -6.773438 4.199219 -7.558594 C 4.484375 -7.988281 4.839844 -8.347656 5.292969 -8.632812 C 5.722656 -8.894531 6.320312 -9.039062 7.035156 -9.039062 C 7.75 -9.039062 8.253906 -8.777344 8.5625 -8.300781 C 8.871094 -7.824219 9.039062 -7.226562 9.039062 -6.558594 Z M 9.039062 0 "/></g></g></g><g fill="#960000" fill-opacity="1"><g transform="translate(252.556309, 227.116084)"><g><path d="M 3.292969 -1.480469 C 2.886719 -1.765625 2.574219 -2.242188 2.410156 -2.933594 L 0.644531 -2.933594 C 1 -0.761719 2.386719 0.308594 4.816406 0.308594 C 5.390625 0.308594 5.914062 0.261719 6.414062 0.121094 C 6.917969 -0.0234375 7.347656 -0.214844 7.75 -0.476562 C 8.5625 -1.027344 8.96875 -1.859375 8.96875 -2.980469 C 8.96875 -4.125 8.441406 -4.9375 7.347656 -5.460938 C 6.894531 -5.675781 6.390625 -5.84375 5.84375 -5.960938 C 5.320312 -6.082031 4.816406 -6.226562 4.363281 -6.367188 C 3.886719 -6.511719 3.507812 -6.703125 3.195312 -6.917969 C 2.886719 -7.132812 2.71875 -7.464844 2.71875 -7.941406 C 2.71875 -8.417969 2.910156 -8.777344 3.292969 -8.992188 C 3.671875 -9.230469 4.125 -9.347656 4.625 -9.347656 C 5.152344 -9.347656 5.605469 -9.230469 5.960938 -9.039062 C 6.320312 -8.847656 6.605469 -8.464844 6.773438 -7.894531 L 8.5625 -7.894531 C 8.347656 -8.945312 7.894531 -9.683594 7.226562 -10.089844 C 6.535156 -10.519531 5.699219 -10.734375 4.675781 -10.734375 C 3.671875 -10.734375 2.789062 -10.445312 2.050781 -9.921875 C 1.335938 -9.375 0.953125 -8.585938 0.953125 -7.535156 C 0.953125 -7.035156 1.097656 -6.582031 1.359375 -6.199219 C 1.644531 -5.796875 2.050781 -5.484375 2.574219 -5.246094 C 3.054688 -5.03125 3.554688 -4.867188 4.078125 -4.722656 C 4.601562 -4.601562 5.105469 -4.460938 5.582031 -4.316406 C 6.652344 -3.960938 7.203125 -3.433594 7.203125 -2.765625 C 7.203125 -1.621094 6.441406 -1.074219 4.914062 -1.074219 C 4.269531 -1.074219 3.71875 -1.191406 3.292969 -1.480469 Z M 3.292969 -1.480469 "/></g></g></g><g fill="#960000" fill-opacity="1"><g transform="translate(266.913688, 227.116084)"><g><path d="M 3.480469 -14.121094 C 3.265625 -14.308594 3.003906 -14.429688 2.71875 -14.429688 C 2.433594 -14.429688 2.171875 -14.308594 1.980469 -14.121094 C 1.765625 -13.90625 1.667969 -13.640625 1.667969 -13.355469 C 1.667969 -13.070312 1.765625 -12.808594 1.980469 -12.617188 C 2.171875 -12.402344 2.433594 -12.304688 2.71875 -12.304688 C 3.003906 -12.304688 3.265625 -12.402344 3.480469 -12.617188 C 3.671875 -12.808594 3.792969 -13.070312 3.792969 -13.355469 C 3.792969 -13.640625 3.671875 -13.90625 3.480469 -14.121094 Z M 3.578125 0 L 3.578125 -10.492188 L 1.90625 -10.492188 L 1.90625 0 Z M 3.578125 0 "/></g></g></g><g fill="#960000" fill-opacity="1"><g transform="translate(277.145415, 227.116084)"><g><path d="M 11.589844 -6.726562 C 11.257812 -7.894531 10.613281 -8.847656 9.683594 -9.585938 C 8.707031 -10.328125 7.632812 -10.707031 6.441406 -10.707031 C 4.9375 -10.707031 3.648438 -10.160156 2.625 -9.085938 C 1.574219 -8.011719 1.074219 -6.726562 1.074219 -5.246094 C 1.074219 -3.746094 1.574219 -2.480469 2.625 -1.382812 C 3.101562 -0.882812 3.648438 -0.476562 4.316406 -0.191406 C 4.960938 0.09375 5.628906 0.238281 6.296875 0.238281 C 6.964844 0.238281 7.558594 0.167969 8.085938 -0.0234375 C 9.753906 -0.621094 10.898438 -1.742188 11.496094 -3.433594 L 9.613281 -3.433594 C 9.277344 -2.839844 8.847656 -2.359375 8.277344 -2.027344 C 7.703125 -1.667969 7.105469 -1.503906 6.441406 -1.503906 C 5.414062 -1.503906 4.554688 -1.859375 3.839844 -2.601562 C 3.125 -3.339844 2.789062 -4.222656 2.789062 -5.246094 C 2.789062 -6.226562 3.125 -7.105469 3.839844 -7.847656 C 4.171875 -8.179688 4.554688 -8.464844 5.007812 -8.65625 C 5.4375 -8.847656 5.988281 -8.96875 6.605469 -8.96875 C 7.226562 -8.96875 7.824219 -8.753906 8.441406 -8.347656 C 9.039062 -7.917969 9.492188 -7.394531 9.777344 -6.726562 Z M 11.589844 -6.726562 "/></g></g></g><g fill="#960000" fill-opacity="1"><g transform="translate(294.340688, 227.116084)"><g><path d="M 3.292969 -1.480469 C 2.886719 -1.765625 2.574219 -2.242188 2.410156 -2.933594 L 0.644531 -2.933594 C 1 -0.761719 2.386719 0.308594 4.816406 0.308594 C 5.390625 0.308594 5.914062 0.261719 6.414062 0.121094 C 6.917969 -0.0234375 7.347656 -0.214844 7.75 -0.476562 C 8.5625 -1.027344 8.96875 -1.859375 8.96875 -2.980469 C 8.96875 -4.125 8.441406 -4.9375 7.347656 -5.460938 C 6.894531 -5.675781 6.390625 -5.84375 5.84375 -5.960938 C 5.320312 -6.082031 4.816406 -6.226562 4.363281 -6.367188 C 3.886719 -6.511719 3.507812 -6.703125 3.195312 -6.917969 C 2.886719 -7.132812 2.71875 -7.464844 2.71875 -7.941406 C 2.71875 -8.417969 2.910156 -8.777344 3.292969 -8.992188 C 3.671875 -9.230469 4.125 -9.347656 4.625 -9.347656 C 5.152344 -9.347656 5.605469 -9.230469 5.960938 -9.039062 C 6.320312 -8.847656 6.605469 -8.464844 6.773438 -7.894531 L 8.5625 -7.894531 C 8.347656 -8.945312 7.894531 -9.683594 7.226562 -10.089844 C 6.535156 -10.519531 5.699219 -10.734375 4.675781 -10.734375 C 3.671875 -10.734375 2.789062 -10.445312 2.050781 -9.921875 C 1.335938 -9.375 0.953125 -8.585938 0.953125 -7.535156 C 0.953125 -7.035156 1.097656 -6.582031 1.359375 -6.199219 C 1.644531 -5.796875 2.050781 -5.484375 2.574219 -5.246094 C 3.054688 -5.03125 3.554688 -4.867188 4.078125 -4.722656 C 4.601562 -4.601562 5.105469 -4.460938 5.582031 -4.316406 C 6.652344 -3.960938 7.203125 -3.433594 7.203125 -2.765625 C 7.203125 -1.621094 6.441406 -1.074219 4.914062 -1.074219 C 4.269531 -1.074219 3.71875 -1.191406 3.292969 -1.480469 Z M 3.292969 -1.480469 "/></g></g></g><g fill="#960000" fill-opacity="1"><g transform="translate(308.697579, 227.116084)"><g/></g></g><g fill="#000000" fill-opacity="0.4"><g transform="translate(110.958405, 242.498249)"><g><path d="M 7.8125 -8.15625 L 4.78125 -8.15625 L 4.78125 0 L 3.15625 0 L 3.15625 -8.15625 L 0.125 -8.15625 L 0.125 -9.609375 L 7.8125 -9.609375 Z M 7.8125 -8.15625 "/></g></g></g><g fill="#000000" fill-opacity="0.4"><g transform="translate(119.924869, 242.498249)"><g><path d="M 2.75 -7.296875 L 2.75 -5.84375 C 3.25 -6.851562 4.085938 -7.359375 5.265625 -7.359375 L 5.265625 -5.84375 C 4.546875 -5.882812 3.960938 -5.71875 3.515625 -5.34375 C 3.066406 -4.96875 2.8125 -4.457031 2.75 -3.8125 L 2.75 0 L 1.171875 0 L 1.171875 -7.296875 Z M 2.75 -7.296875 "/></g></g></g><g fill="#000000" fill-opacity="0.4"><g transform="translate(126.355203, 242.498249)"><g><path d="M 5.546875 0 L 5.546875 -0.890625 C 5.023438 -0.253906 4.21875 0.0625 3.125 0.0625 C 2.351562 0.0625 1.734375 -0.144531 1.265625 -0.5625 C 0.796875 -0.988281 0.5625 -1.53125 0.5625 -2.1875 C 0.5625 -2.863281 0.800781 -3.394531 1.28125 -3.78125 C 1.769531 -4.175781 2.445312 -4.378906 3.3125 -4.390625 L 5.53125 -4.390625 L 5.53125 -4.609375 C 5.53125 -5.078125 5.378906 -5.4375 5.078125 -5.6875 C 4.785156 -5.945312 4.351562 -6.078125 3.78125 -6.078125 C 3.082031 -6.078125 2.363281 -5.832031 1.625 -5.34375 L 0.984375 -6.4375 C 1.546875 -6.757812 2.046875 -6.992188 2.484375 -7.140625 C 2.929688 -7.285156 3.476562 -7.359375 4.125 -7.359375 C 5.0625 -7.359375 5.785156 -7.128906 6.296875 -6.671875 C 6.804688 -6.222656 7.066406 -5.59375 7.078125 -4.78125 L 7.09375 0 Z M 3.453125 -1.1875 C 4.015625 -1.1875 4.488281 -1.316406 4.875 -1.578125 C 5.257812 -1.835938 5.476562 -2.164062 5.53125 -2.5625 L 5.53125 -3.234375 L 3.546875 -3.234375 C 3.023438 -3.234375 2.644531 -3.15625 2.40625 -3 C 2.164062 -2.851562 2.046875 -2.609375 2.046875 -2.265625 C 2.046875 -1.929688 2.171875 -1.664062 2.421875 -1.46875 C 2.671875 -1.28125 3.015625 -1.1875 3.453125 -1.1875 Z M 3.453125 -1.1875 "/></g></g></g><g fill="#000000" fill-opacity="0.4"><g transform="translate(135.417639, 242.498249)"><g><path d="M 1.28125 -10.078125 C 1.457031 -10.253906 1.675781 -10.34375 1.9375 -10.34375 C 2.207031 -10.34375 2.429688 -10.253906 2.609375 -10.078125 C 2.785156 -9.898438 2.875 -9.671875 2.875 -9.390625 C 2.875 -9.109375 2.785156 -8.878906 2.609375 -8.703125 C 2.429688 -8.523438 2.207031 -8.4375 1.9375 -8.4375 C 1.675781 -8.4375 1.457031 -8.523438 1.28125 -8.703125 C 1.113281 -8.878906 1.03125 -9.109375 1.03125 -9.390625 C 1.03125 -9.671875 1.113281 -9.898438 1.28125 -10.078125 Z M 2.734375 0 L 1.171875 0 L 1.171875 -7.296875 L 2.734375 -7.296875 Z M 2.734375 0 "/></g></g></g><g fill="#000000" fill-opacity="0.4"><g transform="translate(140.33999, 242.498249)"><g><path d="M 5.4375 -7.359375 C 6.28125 -7.359375 6.941406 -7.109375 7.421875 -6.609375 C 7.910156 -6.109375 8.15625 -5.421875 8.15625 -4.546875 L 8.15625 0 L 6.578125 0 L 6.578125 -4.109375 C 6.578125 -4.648438 6.421875 -5.078125 6.109375 -5.390625 C 5.796875 -5.710938 5.363281 -5.875 4.8125 -5.875 C 4.226562 -5.863281 3.75 -5.675781 3.375 -5.3125 C 3.007812 -4.945312 2.800781 -4.46875 2.75 -3.875 L 2.75 0 L 1.171875 0 L 1.171875 -7.296875 L 2.75 -7.296875 L 2.75 -5.90625 C 3.238281 -6.875 4.132812 -7.359375 5.4375 -7.359375 Z M 5.4375 -7.359375 "/></g></g></g><g fill="#000000" fill-opacity="0.4"><g transform="translate(150.458008, 242.498249)"><g><path d="M 4.21875 -3.640625 L 0.84375 -3.640625 L 0.84375 -4.71875 L 4.21875 -4.71875 Z M 4.21875 -3.640625 "/></g></g></g><g fill="#000000" fill-opacity="0.4"><g transform="translate(156.531912, 242.498249)"><g><path d="M 1.265625 -9.609375 L 5.09375 -9.609375 C 6.300781 -9.609375 7.234375 -9.320312 7.890625 -8.75 C 8.554688 -8.175781 8.890625 -7.367188 8.890625 -6.328125 C 8.890625 -5.234375 8.554688 -4.382812 7.890625 -3.78125 C 7.234375 -3.1875 6.300781 -2.890625 5.09375 -2.890625 L 2.875 -2.890625 L 2.875 0 L 1.265625 0 Z M 2.875 -8.15625 L 2.875 -4.34375 L 5.015625 -4.34375 C 6.566406 -4.34375 7.34375 -4.988281 7.34375 -6.28125 C 7.34375 -7.53125 6.566406 -8.15625 5.015625 -8.15625 Z M 2.875 -8.15625 "/></g></g></g><g fill="#000000" fill-opacity="0.4"><g transform="translate(166.787013, 242.498249)"><g><path d="M 2.75 -7.296875 L 2.75 -5.84375 C 3.25 -6.851562 4.085938 -7.359375 5.265625 -7.359375 L 5.265625 -5.84375 C 4.546875 -5.882812 3.960938 -5.71875 3.515625 -5.34375 C 3.066406 -4.96875 2.8125 -4.457031 2.75 -3.8125 L 2.75 0 L 1.171875 0 L 1.171875 -7.296875 Z M 2.75 -7.296875 "/></g></g></g><g fill="#000000" fill-opacity="0.4"><g transform="translate(173.217347, 242.498249)"><g><path d="M 4.296875 -7.359375 C 5.421875 -7.359375 6.332031 -7.015625 7.03125 -6.328125 C 7.738281 -5.648438 8.09375 -4.757812 8.09375 -3.65625 C 8.09375 -2.550781 7.738281 -1.65625 7.03125 -0.96875 C 6.332031 -0.28125 5.421875 0.0625 4.296875 0.0625 C 3.160156 0.0625 2.238281 -0.28125 1.53125 -0.96875 C 0.832031 -1.65625 0.484375 -2.550781 0.484375 -3.65625 C 0.484375 -4.757812 0.832031 -5.648438 1.53125 -6.328125 C 2.238281 -7.015625 3.160156 -7.359375 4.296875 -7.359375 Z M 4.296875 -6 C 3.640625 -6 3.101562 -5.773438 2.6875 -5.328125 C 2.269531 -4.890625 2.0625 -4.328125 2.0625 -3.640625 C 2.0625 -2.929688 2.269531 -2.359375 2.6875 -1.921875 C 3.101562 -1.484375 3.640625 -1.265625 4.296875 -1.265625 C 4.953125 -1.265625 5.484375 -1.484375 5.890625 -1.921875 C 6.304688 -2.359375 6.515625 -2.929688 6.515625 -3.640625 C 6.515625 -4.328125 6.304688 -4.890625 5.890625 -5.328125 C 5.472656 -5.773438 4.941406 -6 4.296875 -6 Z M 4.296875 -6 "/></g></g></g><g fill="#000000" fill-opacity="0.4"><g transform="translate(182.814428, 242.498249)"><g><path d="M 4.890625 -1.671875 L 5.296875 -0.46875 C 4.691406 -0.113281 4.09375 0.0625 3.5 0.0625 C 2.90625 0.0625 2.414062 -0.113281 2.03125 -0.46875 C 1.644531 -0.820312 1.453125 -1.351562 1.453125 -2.0625 L 1.453125 -5.84375 L 0.421875 -5.84375 L 0.421875 -7.03125 L 1.453125 -7.03125 L 1.453125 -9.03125 L 3.015625 -9.03125 L 3.015625 -7.03125 L 5.171875 -7.03125 L 5.171875 -5.84375 L 3.015625 -5.84375 L 3.015625 -2.34375 C 3.015625 -1.976562 3.078125 -1.722656 3.203125 -1.578125 C 3.335938 -1.429688 3.535156 -1.359375 3.796875 -1.359375 C 4.085938 -1.359375 4.453125 -1.460938 4.890625 -1.671875 Z M 4.890625 -1.671875 "/></g></g></g><g fill="#000000" fill-opacity="0.4"><g transform="translate(189.422976, 242.498249)"><g><path d="M 4.171875 -7.359375 C 5.421875 -7.359375 6.328125 -6.976562 6.890625 -6.21875 C 7.453125 -5.46875 7.6875 -4.410156 7.59375 -3.046875 L 2.078125 -3.046875 C 2.203125 -2.472656 2.460938 -2.023438 2.859375 -1.703125 C 3.265625 -1.378906 3.753906 -1.21875 4.328125 -1.21875 C 5.148438 -1.21875 5.835938 -1.503906 6.390625 -2.078125 L 7.234375 -1.1875 C 6.484375 -0.351562 5.476562 0.0625 4.21875 0.0625 C 3.09375 0.0625 2.1875 -0.273438 1.5 -0.953125 C 0.820312 -1.640625 0.484375 -2.53125 0.484375 -3.625 C 0.484375 -4.726562 0.820312 -5.625 1.5 -6.3125 C 2.1875 -7 3.078125 -7.347656 4.171875 -7.359375 Z M 2.046875 -4.203125 L 6.21875 -4.203125 C 6.1875 -4.785156 5.988281 -5.242188 5.625 -5.578125 C 5.257812 -5.921875 4.78125 -6.09375 4.1875 -6.09375 C 3.601562 -6.09375 3.125 -5.921875 2.75 -5.578125 C 2.375 -5.242188 2.140625 -4.785156 2.046875 -4.203125 Z M 2.046875 -4.203125 "/></g></g></g><g fill="#000000" fill-opacity="0.4"><g transform="translate(198.512827, 242.498249)"><g><path d="M 4.15625 -7.359375 C 5.46875 -7.359375 6.472656 -6.957031 7.171875 -6.15625 L 6.3125 -5.140625 C 5.757812 -5.703125 5.0625 -5.976562 4.21875 -5.96875 C 3.59375 -5.96875 3.078125 -5.75 2.671875 -5.3125 C 2.265625 -4.882812 2.0625 -4.328125 2.0625 -3.640625 C 2.0625 -2.953125 2.265625 -2.390625 2.671875 -1.953125 C 3.078125 -1.515625 3.59375 -1.296875 4.21875 -1.296875 C 5.15625 -1.296875 5.875 -1.59375 6.375 -2.1875 L 7.25 -1.296875 C 6.570312 -0.390625 5.539062 0.0625 4.15625 0.0625 C 3.070312 0.0625 2.1875 -0.273438 1.5 -0.953125 C 0.820312 -1.640625 0.484375 -2.535156 0.484375 -3.640625 C 0.484375 -4.742188 0.820312 -5.640625 1.5 -6.328125 C 2.1875 -7.015625 3.070312 -7.359375 4.15625 -7.359375 Z M 4.15625 -7.359375 "/></g></g></g><g fill="#000000" fill-opacity="0.4"><g transform="translate(207.273662, 242.498249)"><g><path d="M 4.890625 -1.671875 L 5.296875 -0.46875 C 4.691406 -0.113281 4.09375 0.0625 3.5 0.0625 C 2.90625 0.0625 2.414062 -0.113281 2.03125 -0.46875 C 1.644531 -0.820312 1.453125 -1.351562 1.453125 -2.0625 L 1.453125 -5.84375 L 0.421875 -5.84375 L 0.421875 -7.03125 L 1.453125 -7.03125 L 1.453125 -9.03125 L 3.015625 -9.03125 L 3.015625 -7.03125 L 5.171875 -7.03125 L 5.171875 -5.84375 L 3.015625 -5.84375 L 3.015625 -2.34375 C 3.015625 -1.976562 3.078125 -1.722656 3.203125 -1.578125 C 3.335938 -1.429688 3.535156 -1.359375 3.796875 -1.359375 C 4.085938 -1.359375 4.453125 -1.460938 4.890625 -1.671875 Z M 4.890625 -1.671875 "/></g></g></g><g fill="#000000" fill-opacity="0.4"><g transform="translate(213.882211, 242.498249)"><g><path d="M 4.21875 -3.640625 L 0.84375 -3.640625 L 0.84375 -4.71875 L 4.21875 -4.71875 Z M 4.21875 -3.640625 "/></g></g></g><g fill="#000000" fill-opacity="0.4"><g transform="translate(219.956115, 242.498249)"><g><path d="M 2.875 0 L 1.265625 0 L 1.265625 -9.609375 L 2.875 -9.609375 Z M 2.875 0 "/></g></g></g><g fill="#000000" fill-opacity="0.4"><g transform="translate(225.125227, 242.498249)"><g><path d="M 5.4375 -7.359375 C 6.28125 -7.359375 6.941406 -7.109375 7.421875 -6.609375 C 7.910156 -6.109375 8.15625 -5.421875 8.15625 -4.546875 L 8.15625 0 L 6.578125 0 L 6.578125 -4.109375 C 6.578125 -4.648438 6.421875 -5.078125 6.109375 -5.390625 C 5.796875 -5.710938 5.363281 -5.875 4.8125 -5.875 C 4.226562 -5.863281 3.75 -5.675781 3.375 -5.3125 C 3.007812 -4.945312 2.800781 -4.46875 2.75 -3.875 L 2.75 0 L 1.171875 0 L 1.171875 -7.296875 L 2.75 -7.296875 L 2.75 -5.90625 C 3.238281 -6.875 4.132812 -7.359375 5.4375 -7.359375 Z M 5.4375 -7.359375 "/></g></g></g><g fill="#000000" fill-opacity="0.4"><g transform="translate(235.243245, 242.498249)"><g><path d="M 4.46875 0 L 2.84375 0 L 0.015625 -7.296875 L 1.65625 -7.296875 L 3.6875 -1.546875 L 5.6875 -7.296875 L 7.265625 -7.296875 Z M 4.46875 0 "/></g></g></g><g fill="#000000" fill-opacity="0.4"><g transform="translate(243.469436, 242.498249)"><g><path d="M 4.171875 -7.359375 C 5.421875 -7.359375 6.328125 -6.976562 6.890625 -6.21875 C 7.453125 -5.46875 7.6875 -4.410156 7.59375 -3.046875 L 2.078125 -3.046875 C 2.203125 -2.472656 2.460938 -2.023438 2.859375 -1.703125 C 3.265625 -1.378906 3.753906 -1.21875 4.328125 -1.21875 C 5.148438 -1.21875 5.835938 -1.503906 6.390625 -2.078125 L 7.234375 -1.1875 C 6.484375 -0.351562 5.476562 0.0625 4.21875 0.0625 C 3.09375 0.0625 2.1875 -0.273438 1.5 -0.953125 C 0.820312 -1.640625 0.484375 -2.53125 0.484375 -3.625 C 0.484375 -4.726562 0.820312 -5.625 1.5 -6.3125 C 2.1875 -7 3.078125 -7.347656 4.171875 -7.359375 Z M 2.046875 -4.203125 L 6.21875 -4.203125 C 6.1875 -4.785156 5.988281 -5.242188 5.625 -5.578125 C 5.257812 -5.921875 4.78125 -6.09375 4.1875 -6.09375 C 3.601562 -6.09375 3.125 -5.921875 2.75 -5.578125 C 2.375 -5.242188 2.140625 -4.785156 2.046875 -4.203125 Z M 2.046875 -4.203125 "/></g></g></g><g fill="#000000" fill-opacity="0.4"><g transform="translate(252.559286, 242.498249)"><g><path d="M 3.34375 -7.359375 C 4.351562 -7.359375 5.207031 -7.113281 5.90625 -6.625 L 5.328125 -5.453125 C 4.628906 -5.890625 3.925781 -6.109375 3.21875 -6.109375 C 2.507812 -6.109375 2.15625 -5.863281 2.15625 -5.375 C 2.15625 -5.132812 2.285156 -4.9375 2.546875 -4.78125 C 2.816406 -4.625 3.140625 -4.492188 3.515625 -4.390625 C 3.898438 -4.285156 4.28125 -4.160156 4.65625 -4.015625 C 5.039062 -3.878906 5.363281 -3.648438 5.625 -3.328125 C 5.882812 -3.015625 6.015625 -2.609375 6.015625 -2.109375 C 6.015625 -1.410156 5.75 -0.875 5.21875 -0.5 C 4.6875 -0.125 4.019531 0.0625 3.21875 0.0625 C 2.675781 0.0625 2.140625 -0.0234375 1.609375 -0.203125 C 1.085938 -0.390625 0.644531 -0.640625 0.28125 -0.953125 L 0.84375 -2.078125 C 1.15625 -1.804688 1.535156 -1.585938 1.984375 -1.421875 C 2.441406 -1.265625 2.878906 -1.1875 3.296875 -1.1875 C 3.648438 -1.1875 3.9375 -1.25 4.15625 -1.375 C 4.375 -1.5 4.484375 -1.695312 4.484375 -1.96875 C 4.484375 -2.238281 4.347656 -2.457031 4.078125 -2.625 C 3.816406 -2.789062 3.5 -2.921875 3.125 -3.015625 C 2.75 -3.117188 2.375 -3.238281 2 -3.375 C 1.625 -3.507812 1.304688 -3.734375 1.046875 -4.046875 C 0.785156 -4.367188 0.65625 -4.769531 0.65625 -5.25 C 0.65625 -5.945312 0.910156 -6.472656 1.421875 -6.828125 C 1.941406 -7.179688 2.582031 -7.359375 3.34375 -7.359375 Z M 3.34375 -7.359375 "/></g></g></g><g fill="#000000" fill-opacity="0.4"><g transform="translate(260.031485, 242.498249)"><g><path d="M 4.890625 -1.671875 L 5.296875 -0.46875 C 4.691406 -0.113281 4.09375 0.0625 3.5 0.0625 C 2.90625 0.0625 2.414062 -0.113281 2.03125 -0.46875 C 1.644531 -0.820312 1.453125 -1.351562 1.453125 -2.0625 L 1.453125 -5.84375 L 0.421875 -5.84375 L 0.421875 -7.03125 L 1.453125 -7.03125 L 1.453125 -9.03125 L 3.015625 -9.03125 L 3.015625 -7.03125 L 5.171875 -7.03125 L 5.171875 -5.84375 L 3.015625 -5.84375 L 3.015625 -2.34375 C 3.015625 -1.976562 3.078125 -1.722656 3.203125 -1.578125 C 3.335938 -1.429688 3.535156 -1.359375 3.796875 -1.359375 C 4.085938 -1.359375 4.453125 -1.460938 4.890625 -1.671875 Z M 4.890625 -1.671875 "/></g></g></g><g fill="#000000" fill-opacity="0.4"><g transform="translate(266.640034, 242.498249)"><g><path d="M 1.28125 -10.078125 C 1.457031 -10.253906 1.675781 -10.34375 1.9375 -10.34375 C 2.207031 -10.34375 2.429688 -10.253906 2.609375 -10.078125 C 2.785156 -9.898438 2.875 -9.671875 2.875 -9.390625 C 2.875 -9.109375 2.785156 -8.878906 2.609375 -8.703125 C 2.429688 -8.523438 2.207031 -8.4375 1.9375 -8.4375 C 1.675781 -8.4375 1.457031 -8.523438 1.28125 -8.703125 C 1.113281 -8.878906 1.03125 -9.109375 1.03125 -9.390625 C 1.03125 -9.671875 1.113281 -9.898438 1.28125 -10.078125 Z M 2.734375 0 L 1.171875 0 L 1.171875 -7.296875 L 2.734375 -7.296875 Z M 2.734375 0 "/></g></g></g><g fill="#000000" fill-opacity="0.4"><g transform="translate(271.562385, 242.498249)"><g><path d="M 7.75 -7.296875 L 7.75 -0.71875 C 7.75 0.320312 7.40625 1.148438 6.71875 1.765625 C 6.03125 2.390625 5.113281 2.703125 3.96875 2.703125 C 2.882812 2.703125 1.875 2.382812 0.9375 1.75 L 1.609375 0.609375 C 2.316406 1.140625 3.078125 1.40625 3.890625 1.40625 C 4.585938 1.40625 5.144531 1.21875 5.5625 0.84375 C 5.976562 0.46875 6.1875 -0.0351562 6.1875 -0.671875 L 6.1875 -1.59375 C 5.675781 -0.769531 4.867188 -0.359375 3.765625 -0.359375 C 2.785156 -0.359375 1.992188 -0.679688 1.390625 -1.328125 C 0.785156 -1.984375 0.484375 -2.832031 0.484375 -3.875 C 0.484375 -4.914062 0.78125 -5.753906 1.375 -6.390625 C 1.96875 -7.023438 2.75 -7.347656 3.71875 -7.359375 C 4.832031 -7.359375 5.65625 -6.945312 6.1875 -6.125 L 6.1875 -7.296875 Z M 4.09375 -1.59375 C 4.695312 -1.59375 5.195312 -1.800781 5.59375 -2.21875 C 5.988281 -2.644531 6.1875 -3.1875 6.1875 -3.84375 C 6.1875 -4.5 5.988281 -5.035156 5.59375 -5.453125 C 5.207031 -5.867188 4.703125 -6.078125 4.078125 -6.078125 C 3.460938 -6.078125 2.957031 -5.867188 2.5625 -5.453125 C 2.164062 -5.035156 1.96875 -4.5 1.96875 -3.84375 C 1.96875 -3.1875 2.160156 -2.644531 2.546875 -2.21875 C 2.941406 -1.800781 3.457031 -1.59375 4.09375 -1.59375 Z M 4.09375 -1.59375 "/></g></g></g><g fill="#000000" fill-opacity="0.4"><g transform="translate(281.365085, 242.498249)"><g><path d="M 5.546875 0 L 5.546875 -0.890625 C 5.023438 -0.253906 4.21875 0.0625 3.125 0.0625 C 2.351562 0.0625 1.734375 -0.144531 1.265625 -0.5625 C 0.796875 -0.988281 0.5625 -1.53125 0.5625 -2.1875 C 0.5625 -2.863281 0.800781 -3.394531 1.28125 -3.78125 C 1.769531 -4.175781 2.445312 -4.378906 3.3125 -4.390625 L 5.53125 -4.390625 L 5.53125 -4.609375 C 5.53125 -5.078125 5.378906 -5.4375 5.078125 -5.6875 C 4.785156 -5.945312 4.351562 -6.078125 3.78125 -6.078125 C 3.082031 -6.078125 2.363281 -5.832031 1.625 -5.34375 L 0.984375 -6.4375 C 1.546875 -6.757812 2.046875 -6.992188 2.484375 -7.140625 C 2.929688 -7.285156 3.476562 -7.359375 4.125 -7.359375 C 5.0625 -7.359375 5.785156 -7.128906 6.296875 -6.671875 C 6.804688 -6.222656 7.066406 -5.59375 7.078125 -4.78125 L 7.09375 0 Z M 3.453125 -1.1875 C 4.015625 -1.1875 4.488281 -1.316406 4.875 -1.578125 C 5.257812 -1.835938 5.476562 -2.164062 5.53125 -2.5625 L 5.53125 -3.234375 L 3.546875 -3.234375 C 3.023438 -3.234375 2.644531 -3.15625 2.40625 -3 C 2.164062 -2.851562 2.046875 -2.609375 2.046875 -2.265625 C 2.046875 -1.929688 2.171875 -1.664062 2.421875 -1.46875 C 2.671875 -1.28125 3.015625 -1.1875 3.453125 -1.1875 Z M 3.453125 -1.1875 "/></g></g></g><g fill="#000000" fill-opacity="0.4"><g transform="translate(290.427531, 242.498249)"><g><path d="M 4.890625 -1.671875 L 5.296875 -0.46875 C 4.691406 -0.113281 4.09375 0.0625 3.5 0.0625 C 2.90625 0.0625 2.414062 -0.113281 2.03125 -0.46875 C 1.644531 -0.820312 1.453125 -1.351562 1.453125 -2.0625 L 1.453125 -5.84375 L 0.421875 -5.84375 L 0.421875 -7.03125 L 1.453125 -7.03125 L 1.453125 -9.03125 L 3.015625 -9.03125 L 3.015625 -7.03125 L 5.171875 -7.03125 L 5.171875 -5.84375 L 3.015625 -5.84375 L 3.015625 -2.34375 C 3.015625 -1.976562 3.078125 -1.722656 3.203125 -1.578125 C 3.335938 -1.429688 3.535156 -1.359375 3.796875 -1.359375 C 4.085938 -1.359375 4.453125 -1.460938 4.890625 -1.671875 Z M 4.890625 -1.671875 "/></g></g></g><g fill="#000000" fill-opacity="0.4"><g transform="translate(297.036089, 242.498249)"><g><path d="M 4.171875 -7.359375 C 5.421875 -7.359375 6.328125 -6.976562 6.890625 -6.21875 C 7.453125 -5.46875 7.6875 -4.410156 7.59375 -3.046875 L 2.078125 -3.046875 C 2.203125 -2.472656 2.460938 -2.023438 2.859375 -1.703125 C 3.265625 -1.378906 3.753906 -1.21875 4.328125 -1.21875 C 5.148438 -1.21875 5.835938 -1.503906 6.390625 -2.078125 L 7.234375 -1.1875 C 6.484375 -0.351562 5.476562 0.0625 4.21875 0.0625 C 3.09375 0.0625 2.1875 -0.273438 1.5 -0.953125 C 0.820312 -1.640625 0.484375 -2.53125 0.484375 -3.625 C 0.484375 -4.726562 0.820312 -5.625 1.5 -6.3125 C 2.1875 -7 3.078125 -7.347656 4.171875 -7.359375 Z M 2.046875 -4.203125 L 6.21875 -4.203125 C 6.1875 -4.785156 5.988281 -5.242188 5.625 -5.578125 C 5.257812 -5.921875 4.78125 -6.09375 4.1875 -6.09375 C 3.601562 -6.09375 3.125 -5.921875 2.75 -5.578125 C 2.375 -5.242188 2.140625 -4.785156 2.046875 -4.203125 Z M 2.046875 -4.203125 "/></g></g></g><g fill="#000000" fill-opacity="1"><g transform="translate(110.35204, 241.891877)"><g><path d="M 7.8125 -8.15625 L 4.78125 -8.15625 L 4.78125 0 L 3.15625 0 L 3.15625 -8.15625 L 0.125 -8.15625 L 0.125 -9.609375 L 7.8125 -9.609375 Z M 7.8125 -8.15625 "/></g></g></g><g fill="#000000" fill-opacity="1"><g transform="translate(119.318505, 241.891877)"><g><path d="M 2.75 -7.296875 L 2.75 -5.84375 C 3.25 -6.851562 4.085938 -7.359375 5.265625 -7.359375 L 5.265625 -5.84375 C 4.546875 -5.882812 3.960938 -5.71875 3.515625 -5.34375 C 3.066406 -4.96875 2.8125 -4.457031 2.75 -3.8125 L 2.75 0 L 1.171875 0 L 1.171875 -7.296875 Z M 2.75 -7.296875 "/></g></g></g><g fill="#000000" fill-opacity="1"><g transform="translate(125.748838, 241.891877)"><g><path d="M 5.546875 0 L 5.546875 -0.890625 C 5.023438 -0.253906 4.21875 0.0625 3.125 0.0625 C 2.351562 0.0625 1.734375 -0.144531 1.265625 -0.5625 C 0.796875 -0.988281 0.5625 -1.53125 0.5625 -2.1875 C 0.5625 -2.863281 0.800781 -3.394531 1.28125 -3.78125 C 1.769531 -4.175781 2.445312 -4.378906 3.3125 -4.390625 L 5.53125 -4.390625 L 5.53125 -4.609375 C 5.53125 -5.078125 5.378906 -5.4375 5.078125 -5.6875 C 4.785156 -5.945312 4.351562 -6.078125 3.78125 -6.078125 C 3.082031 -6.078125 2.363281 -5.832031 1.625 -5.34375 L 0.984375 -6.4375 C 1.546875 -6.757812 2.046875 -6.992188 2.484375 -7.140625 C 2.929688 -7.285156 3.476562 -7.359375 4.125 -7.359375 C 5.0625 -7.359375 5.785156 -7.128906 6.296875 -6.671875 C 6.804688 -6.222656 7.066406 -5.59375 7.078125 -4.78125 L 7.09375 0 Z M 3.453125 -1.1875 C 4.015625 -1.1875 4.488281 -1.316406 4.875 -1.578125 C 5.257812 -1.835938 5.476562 -2.164062 5.53125 -2.5625 L 5.53125 -3.234375 L 3.546875 -3.234375 C 3.023438 -3.234375 2.644531 -3.15625 2.40625 -3 C 2.164062 -2.851562 2.046875 -2.609375 2.046875 -2.265625 C 2.046875 -1.929688 2.171875 -1.664062 2.421875 -1.46875 C 2.671875 -1.28125 3.015625 -1.1875 3.453125 -1.1875 Z M 3.453125 -1.1875 "/></g></g></g><g fill="#000000" fill-opacity="1"><g transform="translate(134.811274, 241.891877)"><g><path d="M 1.28125 -10.078125 C 1.457031 -10.253906 1.675781 -10.34375 1.9375 -10.34375 C 2.207031 -10.34375 2.429688 -10.253906 2.609375 -10.078125 C 2.785156 -9.898438 2.875 -9.671875 2.875 -9.390625 C 2.875 -9.109375 2.785156 -8.878906 2.609375 -8.703125 C 2.429688 -8.523438 2.207031 -8.4375 1.9375 -8.4375 C 1.675781 -8.4375 1.457031 -8.523438 1.28125 -8.703125 C 1.113281 -8.878906 1.03125 -9.109375 1.03125 -9.390625 C 1.03125 -9.671875 1.113281 -9.898438 1.28125 -10.078125 Z M 2.734375 0 L 1.171875 0 L 1.171875 -7.296875 L 2.734375 -7.296875 Z M 2.734375 0 "/></g></g></g><g fill="#000000" fill-opacity="1"><g transform="translate(139.733625, 241.891877)"><g><path d="M 5.4375 -7.359375 C 6.28125 -7.359375 6.941406 -7.109375 7.421875 -6.609375 C 7.910156 -6.109375 8.15625 -5.421875 8.15625 -4.546875 L 8.15625 0 L 6.578125 0 L 6.578125 -4.109375 C 6.578125 -4.648438 6.421875 -5.078125 6.109375 -5.390625 C 5.796875 -5.710938 5.363281 -5.875 4.8125 -5.875 C 4.226562 -5.863281 3.75 -5.675781 3.375 -5.3125 C 3.007812 -4.945312 2.800781 -4.46875 2.75 -3.875 L 2.75 0 L 1.171875 0 L 1.171875 -7.296875 L 2.75 -7.296875 L 2.75 -5.90625 C 3.238281 -6.875 4.132812 -7.359375 5.4375 -7.359375 Z M 5.4375 -7.359375 "/></g></g></g><g fill="#000000" fill-opacity="1"><g transform="translate(149.851643, 241.891877)"><g><path d="M 4.21875 -3.640625 L 0.84375 -3.640625 L 0.84375 -4.71875 L 4.21875 -4.71875 Z M 4.21875 -3.640625 "/></g></g></g><g fill="#000000" fill-opacity="1"><g transform="translate(155.925547, 241.891877)"><g><path d="M 1.265625 -9.609375 L 5.09375 -9.609375 C 6.300781 -9.609375 7.234375 -9.320312 7.890625 -8.75 C 8.554688 -8.175781 8.890625 -7.367188 8.890625 -6.328125 C 8.890625 -5.234375 8.554688 -4.382812 7.890625 -3.78125 C 7.234375 -3.1875 6.300781 -2.890625 5.09375 -2.890625 L 2.875 -2.890625 L 2.875 0 L 1.265625 0 Z M 2.875 -8.15625 L 2.875 -4.34375 L 5.015625 -4.34375 C 6.566406 -4.34375 7.34375 -4.988281 7.34375 -6.28125 C 7.34375 -7.53125 6.566406 -8.15625 5.015625 -8.15625 Z M 2.875 -8.15625 "/></g></g></g><g fill="#000000" fill-opacity="1"><g transform="translate(166.180648, 241.891877)"><g><path d="M 2.75 -7.296875 L 2.75 -5.84375 C 3.25 -6.851562 4.085938 -7.359375 5.265625 -7.359375 L 5.265625 -5.84375 C 4.546875 -5.882812 3.960938 -5.71875 3.515625 -5.34375 C 3.066406 -4.96875 2.8125 -4.457031 2.75 -3.8125 L 2.75 0 L 1.171875 0 L 1.171875 -7.296875 Z M 2.75 -7.296875 "/></g></g></g><g fill="#000000" fill-opacity="1"><g transform="translate(172.610982, 241.891877)"><g><path d="M 4.296875 -7.359375 C 5.421875 -7.359375 6.332031 -7.015625 7.03125 -6.328125 C 7.738281 -5.648438 8.09375 -4.757812 8.09375 -3.65625 C 8.09375 -2.550781 7.738281 -1.65625 7.03125 -0.96875 C 6.332031 -0.28125 5.421875 0.0625 4.296875 0.0625 C 3.160156 0.0625 2.238281 -0.28125 1.53125 -0.96875 C 0.832031 -1.65625 0.484375 -2.550781 0.484375 -3.65625 C 0.484375 -4.757812 0.832031 -5.648438 1.53125 -6.328125 C 2.238281 -7.015625 3.160156 -7.359375 4.296875 -7.359375 Z M 4.296875 -6 C 3.640625 -6 3.101562 -5.773438 2.6875 -5.328125 C 2.269531 -4.890625 2.0625 -4.328125 2.0625 -3.640625 C 2.0625 -2.929688 2.269531 -2.359375 2.6875 -1.921875 C 3.101562 -1.484375 3.640625 -1.265625 4.296875 -1.265625 C 4.953125 -1.265625 5.484375 -1.484375 5.890625 -1.921875 C 6.304688 -2.359375 6.515625 -2.929688 6.515625 -3.640625 C 6.515625 -4.328125 6.304688 -4.890625 5.890625 -5.328125 C 5.472656 -5.773438 4.941406 -6 4.296875 -6 Z M 4.296875 -6 "/></g></g></g><g fill="#000000" fill-opacity="1"><g transform="translate(182.208063, 241.891877)"><g><path d="M 4.890625 -1.671875 L 5.296875 -0.46875 C 4.691406 -0.113281 4.09375 0.0625 3.5 0.0625 C 2.90625 0.0625 2.414062 -0.113281 2.03125 -0.46875 C 1.644531 -0.820312 1.453125 -1.351562 1.453125 -2.0625 L 1.453125 -5.84375 L 0.421875 -5.84375 L 0.421875 -7.03125 L 1.453125 -7.03125 L 1.453125 -9.03125 L 3.015625 -9.03125 L 3.015625 -7.03125 L 5.171875 -7.03125 L 5.171875 -5.84375 L 3.015625 -5.84375 L 3.015625 -2.34375 C 3.015625 -1.976562 3.078125 -1.722656 3.203125 -1.578125 C 3.335938 -1.429688 3.535156 -1.359375 3.796875 -1.359375 C 4.085938 -1.359375 4.453125 -1.460938 4.890625 -1.671875 Z M 4.890625 -1.671875 "/></g></g></g><g fill="#000000" fill-opacity="1"><g transform="translate(188.816612, 241.891877)"><g><path d="M 4.171875 -7.359375 C 5.421875 -7.359375 6.328125 -6.976562 6.890625 -6.21875 C 7.453125 -5.46875 7.6875 -4.410156 7.59375 -3.046875 L 2.078125 -3.046875 C 2.203125 -2.472656 2.460938 -2.023438 2.859375 -1.703125 C 3.265625 -1.378906 3.753906 -1.21875 4.328125 -1.21875 C 5.148438 -1.21875 5.835938 -1.503906 6.390625 -2.078125 L 7.234375 -1.1875 C 6.484375 -0.351562 5.476562 0.0625 4.21875 0.0625 C 3.09375 0.0625 2.1875 -0.273438 1.5 -0.953125 C 0.820312 -1.640625 0.484375 -2.53125 0.484375 -3.625 C 0.484375 -4.726562 0.820312 -5.625 1.5 -6.3125 C 2.1875 -7 3.078125 -7.347656 4.171875 -7.359375 Z M 2.046875 -4.203125 L 6.21875 -4.203125 C 6.1875 -4.785156 5.988281 -5.242188 5.625 -5.578125 C 5.257812 -5.921875 4.78125 -6.09375 4.1875 -6.09375 C 3.601562 -6.09375 3.125 -5.921875 2.75 -5.578125 C 2.375 -5.242188 2.140625 -4.785156 2.046875 -4.203125 Z M 2.046875 -4.203125 "/></g></g></g><g fill="#000000" fill-opacity="1"><g transform="translate(197.906462, 241.891877)"><g><path d="M 4.15625 -7.359375 C 5.46875 -7.359375 6.472656 -6.957031 7.171875 -6.15625 L 6.3125 -5.140625 C 5.757812 -5.703125 5.0625 -5.976562 4.21875 -5.96875 C 3.59375 -5.96875 3.078125 -5.75 2.671875 -5.3125 C 2.265625 -4.882812 2.0625 -4.328125 2.0625 -3.640625 C 2.0625 -2.953125 2.265625 -2.390625 2.671875 -1.953125 C 3.078125 -1.515625 3.59375 -1.296875 4.21875 -1.296875 C 5.15625 -1.296875 5.875 -1.59375 6.375 -2.1875 L 7.25 -1.296875 C 6.570312 -0.390625 5.539062 0.0625 4.15625 0.0625 C 3.070312 0.0625 2.1875 -0.273438 1.5 -0.953125 C 0.820312 -1.640625 0.484375 -2.535156 0.484375 -3.640625 C 0.484375 -4.742188 0.820312 -5.640625 1.5 -6.328125 C 2.1875 -7.015625 3.070312 -7.359375 4.15625 -7.359375 Z M 4.15625 -7.359375 "/></g></g></g><g fill="#000000" fill-opacity="1"><g transform="translate(206.667297, 241.891877)"><g><path d="M 4.890625 -1.671875 L 5.296875 -0.46875 C 4.691406 -0.113281 4.09375 0.0625 3.5 0.0625 C 2.90625 0.0625 2.414062 -0.113281 2.03125 -0.46875 C 1.644531 -0.820312 1.453125 -1.351562 1.453125 -2.0625 L 1.453125 -5.84375 L 0.421875 -5.84375 L 0.421875 -7.03125 L 1.453125 -7.03125 L 1.453125 -9.03125 L 3.015625 -9.03125 L 3.015625 -7.03125 L 5.171875 -7.03125 L 5.171875 -5.84375 L 3.015625 -5.84375 L 3.015625 -2.34375 C 3.015625 -1.976562 3.078125 -1.722656 3.203125 -1.578125 C 3.335938 -1.429688 3.535156 -1.359375 3.796875 -1.359375 C 4.085938 -1.359375 4.453125 -1.460938 4.890625 -1.671875 Z M 4.890625 -1.671875 "/></g></g></g><g fill="#000000" fill-opacity="1"><g transform="translate(213.275846, 241.891877)"><g><path d="M 4.21875 -3.640625 L 0.84375 -3.640625 L 0.84375 -4.71875 L 4.21875 -4.71875 Z M 4.21875 -3.640625 "/></g></g></g><g fill="#000000" fill-opacity="1"><g transform="translate(219.34975, 241.891877)"><g><path d="M 2.875 0 L 1.265625 0 L 1.265625 -9.609375 L 2.875 -9.609375 Z M 2.875 0 "/></g></g></g><g fill="#000000" fill-opacity="1"><g transform="translate(224.518862, 241.891877)"><g><path d="M 5.4375 -7.359375 C 6.28125 -7.359375 6.941406 -7.109375 7.421875 -6.609375 C 7.910156 -6.109375 8.15625 -5.421875 8.15625 -4.546875 L 8.15625 0 L 6.578125 0 L 6.578125 -4.109375 C 6.578125 -4.648438 6.421875 -5.078125 6.109375 -5.390625 C 5.796875 -5.710938 5.363281 -5.875 4.8125 -5.875 C 4.226562 -5.863281 3.75 -5.675781 3.375 -5.3125 C 3.007812 -4.945312 2.800781 -4.46875 2.75 -3.875 L 2.75 0 L 1.171875 0 L 1.171875 -7.296875 L 2.75 -7.296875 L 2.75 -5.90625 C 3.238281 -6.875 4.132812 -7.359375 5.4375 -7.359375 Z M 5.4375 -7.359375 "/></g></g></g><g fill="#000000" fill-opacity="1"><g transform="translate(234.636881, 241.891877)"><g><path d="M 4.46875 0 L 2.84375 0 L 0.015625 -7.296875 L 1.65625 -7.296875 L 3.6875 -1.546875 L 5.6875 -7.296875 L 7.265625 -7.296875 Z M 4.46875 0 "/></g></g></g><g fill="#000000" fill-opacity="1"><g transform="translate(242.863071, 241.891877)"><g><path d="M 4.171875 -7.359375 C 5.421875 -7.359375 6.328125 -6.976562 6.890625 -6.21875 C 7.453125 -5.46875 7.6875 -4.410156 7.59375 -3.046875 L 2.078125 -3.046875 C 2.203125 -2.472656 2.460938 -2.023438 2.859375 -1.703125 C 3.265625 -1.378906 3.753906 -1.21875 4.328125 -1.21875 C 5.148438 -1.21875 5.835938 -1.503906 6.390625 -2.078125 L 7.234375 -1.1875 C 6.484375 -0.351562 5.476562 0.0625 4.21875 0.0625 C 3.09375 0.0625 2.1875 -0.273438 1.5 -0.953125 C 0.820312 -1.640625 0.484375 -2.53125 0.484375 -3.625 C 0.484375 -4.726562 0.820312 -5.625 1.5 -6.3125 C 2.1875 -7 3.078125 -7.347656 4.171875 -7.359375 Z M 2.046875 -4.203125 L 6.21875 -4.203125 C 6.1875 -4.785156 5.988281 -5.242188 5.625 -5.578125 C 5.257812 -5.921875 4.78125 -6.09375 4.1875 -6.09375 C 3.601562 -6.09375 3.125 -5.921875 2.75 -5.578125 C 2.375 -5.242188 2.140625 -4.785156 2.046875 -4.203125 Z M 2.046875 -4.203125 "/></g></g></g><g fill="#000000" fill-opacity="1"><g transform="translate(251.952922, 241.891877)"><g><path d="M 3.34375 -7.359375 C 4.351562 -7.359375 5.207031 -7.113281 5.90625 -6.625 L 5.328125 -5.453125 C 4.628906 -5.890625 3.925781 -6.109375 3.21875 -6.109375 C 2.507812 -6.109375 2.15625 -5.863281 2.15625 -5.375 C 2.15625 -5.132812 2.285156 -4.9375 2.546875 -4.78125 C 2.816406 -4.625 3.140625 -4.492188 3.515625 -4.390625 C 3.898438 -4.285156 4.28125 -4.160156 4.65625 -4.015625 C 5.039062 -3.878906 5.363281 -3.648438 5.625 -3.328125 C 5.882812 -3.015625 6.015625 -2.609375 6.015625 -2.109375 C 6.015625 -1.410156 5.75 -0.875 5.21875 -0.5 C 4.6875 -0.125 4.019531 0.0625 3.21875 0.0625 C 2.675781 0.0625 2.140625 -0.0234375 1.609375 -0.203125 C 1.085938 -0.390625 0.644531 -0.640625 0.28125 -0.953125 L 0.84375 -2.078125 C 1.15625 -1.804688 1.535156 -1.585938 1.984375 -1.421875 C 2.441406 -1.265625 2.878906 -1.1875 3.296875 -1.1875 C 3.648438 -1.1875 3.9375 -1.25 4.15625 -1.375 C 4.375 -1.5 4.484375 -1.695312 4.484375 -1.96875 C 4.484375 -2.238281 4.347656 -2.457031 4.078125 -2.625 C 3.816406 -2.789062 3.5 -2.921875 3.125 -3.015625 C 2.75 -3.117188 2.375 -3.238281 2 -3.375 C 1.625 -3.507812 1.304688 -3.734375 1.046875 -4.046875 C 0.785156 -4.367188 0.65625 -4.769531 0.65625 -5.25 C 0.65625 -5.945312 0.910156 -6.472656 1.421875 -6.828125 C 1.941406 -7.179688 2.582031 -7.359375 3.34375 -7.359375 Z M 3.34375 -7.359375 "/></g></g></g><g fill="#000000" fill-opacity="1"><g transform="translate(259.42512, 241.891877)"><g><path d="M 4.890625 -1.671875 L 5.296875 -0.46875 C 4.691406 -0.113281 4.09375 0.0625 3.5 0.0625 C 2.90625 0.0625 2.414062 -0.113281 2.03125 -0.46875 C 1.644531 -0.820312 1.453125 -1.351562 1.453125 -2.0625 L 1.453125 -5.84375 L 0.421875 -5.84375 L 0.421875 -7.03125 L 1.453125 -7.03125 L 1.453125 -9.03125 L 3.015625 -9.03125 L 3.015625 -7.03125 L 5.171875 -7.03125 L 5.171875 -5.84375 L 3.015625 -5.84375 L 3.015625 -2.34375 C 3.015625 -1.976562 3.078125 -1.722656 3.203125 -1.578125 C 3.335938 -1.429688 3.535156 -1.359375 3.796875 -1.359375 C 4.085938 -1.359375 4.453125 -1.460938 4.890625 -1.671875 Z M 4.890625 -1.671875 "/></g></g></g><g fill="#000000" fill-opacity="1"><g transform="translate(266.033669, 241.891877)"><g><path d="M 1.28125 -10.078125 C 1.457031 -10.253906 1.675781 -10.34375 1.9375 -10.34375 C 2.207031 -10.34375 2.429688 -10.253906 2.609375 -10.078125 C 2.785156 -9.898438 2.875 -9.671875 2.875 -9.390625 C 2.875 -9.109375 2.785156 -8.878906 2.609375 -8.703125 C 2.429688 -8.523438 2.207031 -8.4375 1.9375 -8.4375 C 1.675781 -8.4375 1.457031 -8.523438 1.28125 -8.703125 C 1.113281 -8.878906 1.03125 -9.109375 1.03125 -9.390625 C 1.03125 -9.671875 1.113281 -9.898438 1.28125 -10.078125 Z M 2.734375 0 L 1.171875 0 L 1.171875 -7.296875 L 2.734375 -7.296875 Z M 2.734375 0 "/></g></g></g><g fill="#000000" fill-opacity="1"><g transform="translate(270.95602, 241.891877)"><g><path d="M 7.75 -7.296875 L 7.75 -0.71875 C 7.75 0.320312 7.40625 1.148438 6.71875 1.765625 C 6.03125 2.390625 5.113281 2.703125 3.96875 2.703125 C 2.882812 2.703125 1.875 2.382812 0.9375 1.75 L 1.609375 0.609375 C 2.316406 1.140625 3.078125 1.40625 3.890625 1.40625 C 4.585938 1.40625 5.144531 1.21875 5.5625 0.84375 C 5.976562 0.46875 6.1875 -0.0351562 6.1875 -0.671875 L 6.1875 -1.59375 C 5.675781 -0.769531 4.867188 -0.359375 3.765625 -0.359375 C 2.785156 -0.359375 1.992188 -0.679688 1.390625 -1.328125 C 0.785156 -1.984375 0.484375 -2.832031 0.484375 -3.875 C 0.484375 -4.914062 0.78125 -5.753906 1.375 -6.390625 C 1.96875 -7.023438 2.75 -7.347656 3.71875 -7.359375 C 4.832031 -7.359375 5.65625 -6.945312 6.1875 -6.125 L 6.1875 -7.296875 Z M 4.09375 -1.59375 C 4.695312 -1.59375 5.195312 -1.800781 5.59375 -2.21875 C 5.988281 -2.644531 6.1875 -3.1875 6.1875 -3.84375 C 6.1875 -4.5 5.988281 -5.035156 5.59375 -5.453125 C 5.207031 -5.867188 4.703125 -6.078125 4.078125 -6.078125 C 3.460938 -6.078125 2.957031 -5.867188 2.5625 -5.453125 C 2.164062 -5.035156 1.96875 -4.5 1.96875 -3.84375 C 1.96875 -3.1875 2.160156 -2.644531 2.546875 -2.21875 C 2.941406 -1.800781 3.457031 -1.59375 4.09375 -1.59375 Z M 4.09375 -1.59375 "/></g></g></g><g fill="#000000" fill-opacity="1"><g transform="translate(280.75872, 241.891877)"><g><path d="M 5.546875 0 L 5.546875 -0.890625 C 5.023438 -0.253906 4.21875 0.0625 3.125 0.0625 C 2.351562 0.0625 1.734375 -0.144531 1.265625 -0.5625 C 0.796875 -0.988281 0.5625 -1.53125 0.5625 -2.1875 C 0.5625 -2.863281 0.800781 -3.394531 1.28125 -3.78125 C 1.769531 -4.175781 2.445312 -4.378906 3.3125 -4.390625 L 5.53125 -4.390625 L 5.53125 -4.609375 C 5.53125 -5.078125 5.378906 -5.4375 5.078125 -5.6875 C 4.785156 -5.945312 4.351562 -6.078125 3.78125 -6.078125 C 3.082031 -6.078125 2.363281 -5.832031 1.625 -5.34375 L 0.984375 -6.4375 C 1.546875 -6.757812 2.046875 -6.992188 2.484375 -7.140625 C 2.929688 -7.285156 3.476562 -7.359375 4.125 -7.359375 C 5.0625 -7.359375 5.785156 -7.128906 6.296875 -6.671875 C 6.804688 -6.222656 7.066406 -5.59375 7.078125 -4.78125 L 7.09375 0 Z M 3.453125 -1.1875 C 4.015625 -1.1875 4.488281 -1.316406 4.875 -1.578125 C 5.257812 -1.835938 5.476562 -2.164062 5.53125 -2.5625 L 5.53125 -3.234375 L 3.546875 -3.234375 C 3.023438 -3.234375 2.644531 -3.15625 2.40625 -3 C 2.164062 -2.851562 2.046875 -2.609375 2.046875 -2.265625 C 2.046875 -1.929688 2.171875 -1.664062 2.421875 -1.46875 C 2.671875 -1.28125 3.015625 -1.1875 3.453125 -1.1875 Z M 3.453125 -1.1875 "/></g></g></g><g fill="#000000" fill-opacity="1"><g transform="translate(289.821166, 241.891877)"><g><path d="M 4.890625 -1.671875 L 5.296875 -0.46875 C 4.691406 -0.113281 4.09375 0.0625 3.5 0.0625 C 2.90625 0.0625 2.414062 -0.113281 2.03125 -0.46875 C 1.644531 -0.820312 1.453125 -1.351562 1.453125 -2.0625 L 1.453125 -5.84375 L 0.421875 -5.84375 L 0.421875 -7.03125 L 1.453125 -7.03125 L 1.453125 -9.03125 L 3.015625 -9.03125 L 3.015625 -7.03125 L 5.171875 -7.03125 L 5.171875 -5.84375 L 3.015625 -5.84375 L 3.015625 -2.34375 C 3.015625 -1.976562 3.078125 -1.722656 3.203125 -1.578125 C 3.335938 -1.429688 3.535156 -1.359375 3.796875 -1.359375 C 4.085938 -1.359375 4.453125 -1.460938 4.890625 -1.671875 Z M 4.890625 -1.671875 "/></g></g></g><g fill="#000000" fill-opacity="1"><g transform="translate(296.429725, 241.891877)"><g><path d="M 4.171875 -7.359375 C 5.421875 -7.359375 6.328125 -6.976562 6.890625 -6.21875 C 7.453125 -5.46875 7.6875 -4.410156 7.59375 -3.046875 L 2.078125 -3.046875 C 2.203125 -2.472656 2.460938 -2.023438 2.859375 -1.703125 C 3.265625 -1.378906 3.753906 -1.21875 4.328125 -1.21875 C 5.148438 -1.21875 5.835938 -1.503906 6.390625 -2.078125 L 7.234375 -1.1875 C 6.484375 -0.351562 5.476562 0.0625 4.21875 0.0625 C 3.09375 0.0625 2.1875 -0.273438 1.5 -0.953125 C 0.820312 -1.640625 0.484375 -2.53125 0.484375 -3.625 C 0.484375 -4.726562 0.820312 -5.625 1.5 -6.3125 C 2.1875 -7 3.078125 -7.347656 4.171875 -7.359375 Z M 2.046875 -4.203125 L 6.21875 -4.203125 C 6.1875 -4.785156 5.988281 -5.242188 5.625 -5.578125 C 5.257812 -5.921875 4.78125 -6.09375 4.1875 -6.09375 C 3.601562 -6.09375 3.125 -5.921875 2.75 -5.578125 C 2.375 -5.242188 2.140625 -4.785156 2.046875 -4.203125 Z M 2.046875 -4.203125 "/></g></g></g></svg>